# xmcd CD database file
#
# Track frame offsets:
#	150
#	22075
#	40627
#	62640
#	89242
#	110100
#	127057
#	151117
#	168745
#	198147
#	216337
#
# Disc length: 3234 seconds
#
# Revision: 2
# Processed by: cddbd v1.5.2PL0 Copyright (c) Steve Scherf et al.
# Submitted via: CDex 1.51
#
DISCID=a00ca00b
DTITLE=Chicago's Hottest Guitars! featuring Billy Branch and Big Wheeler On Harp - Phil Guy and Lurrie Bell
DYEAR=1900
DGENRE=Blues
TTITLE0=What Can A Poor Man Do - Lurrie Bell
TTITLE1=Wine Headed Woman - Phil Guy
TTITLE2=Little Red Rooster - Lurrie Bell
TTITLE3=What Have I Done - Phil Guy
TTITLE4=Goin' To Louisiana - Lurrie Bell
TTITLE5=Nobody Wants To Loose - Lurrie Bell
TTITLE6=Sky Is Crying - Phil Guy
TTITLE7=Sweet Home Chicago - Lurrie Bell
TTITLE8=Part' Time Love - Phil Guy
TTITLE9=Walkin' Thru The Park - Lurrie Bell
TTITLE10=Love Light - Phil Guy
EXTD=
EXTT0=
EXTT1=
EXTT2=
EXTT3=
EXTT4=
EXTT5=
EXTT6=
EXTT7=
EXTT8=
EXTT9=
EXTT10=
PLAYORDER=
